<svg version="1.1" id="Layer_1" xmlns="http://www.w3.org/2000/svg" xmlns:xlink="http://www.w3.org/1999/xlink" x="0px" y="0px"
	 width="100%" viewBox="0 0 601 523" enable-background="new 0 0 601 523" xml:space="preserve">
<path fill="#000000" opacity="1.000000" stroke="none" 
	d="
M346.000000,524.000000 
	C230.692184,524.000000 115.884384,524.000000 1.038285,524.000000 
	C1.038285,349.730957 1.038285,175.461884 1.038285,1.096408 
	C201.224487,1.096408 401.449036,1.096408 601.836792,1.096408 
	C601.836792,175.333206 601.836792,349.666595 601.836792,524.000000 
	C516.795166,524.000000 431.647583,524.000000 346.000000,524.000000 
M472.368561,222.076981 
	C470.630005,222.472397 468.891418,222.867828 467.152863,223.263245 
	C467.200745,223.644363 467.248657,224.025497 467.296539,224.406631 
	C468.890869,224.581772 470.485199,224.756912 473.000061,224.973251 
	C484.971832,224.958969 496.943634,224.944672 509.741730,224.969254 
	C512.186707,224.822601 514.650085,224.415970 517.072510,224.587433 
	C521.175537,224.877914 525.245361,225.606644 529.342529,226.018875 
	C535.911194,226.679764 542.488525,227.258530 549.066467,227.822144 
	C553.474976,228.199890 557.890869,228.491348 563.128235,228.883102 
	C562.179077,227.399445 561.955811,226.685394 561.673462,226.661194 
	C543.423096,225.096603 525.167969,223.587967 505.994293,222.030914 
	C495.037476,222.055557 484.080658,222.080215 472.368561,222.076981 
M333.846069,510.149536 
	C336.562653,509.765472 339.279266,509.381409 342.852386,509.272278 
	C351.897491,508.169464 360.942627,507.066681 370.788513,505.877441 
	C383.268311,502.976257 395.908112,500.624359 408.190491,497.045624 
	C426.767334,491.632874 444.769379,484.671967 458.055634,469.592987 
	C464.640778,462.119324 466.598602,452.907288 460.692383,443.591614 
	C454.781616,434.268799 446.129181,428.694214 436.897217,423.892395 
	C415.918884,412.980988 393.155914,407.654083 370.053070,402.792206 
	C370.037201,384.815948 370.232422,366.835724 369.894562,348.865509 
	C369.771088,342.297394 369.672241,335.615173 365.869171,329.532440 
	C361.676025,322.825745 357.180298,316.665283 350.469208,312.186371 
	C339.257782,304.703949 326.369904,303.665924 313.692230,303.228088 
	C297.773254,302.678345 281.782440,303.352081 265.858795,304.187622 
	C258.810547,304.557465 251.826752,306.507355 244.869263,307.999054 
	C243.213531,308.354034 241.113831,309.378693 240.364792,310.730560 
	C237.645050,315.639252 235.417343,320.820190 232.993073,325.893188 
	C232.014771,327.940430 231.008118,329.974152 229.277832,332.108063 
	C228.201691,332.548828 227.140991,333.032806 226.047073,333.423828 
	C210.531052,338.969482 195.122482,340.854675 179.860565,332.451385 
	C170.675461,327.394012 164.381775,319.611725 159.019028,310.929443 
	C153.474167,301.952301 146.375137,294.431183 136.585815,290.484222 
	C130.940536,288.208099 124.534424,287.512421 118.391472,286.897614 
	C114.961700,286.554382 109.748291,286.746368 109.634056,291.194946 
	C109.568443,293.750275 113.453926,296.866882 116.167717,298.933990 
	C121.153236,302.731476 127.569618,305.064087 131.609726,309.594482 
	C138.055984,316.823029 143.541336,325.053009 148.543915,333.392853 
	C157.563858,348.430145 169.427643,359.629608 186.776413,363.886200 
	C200.500870,367.253571 214.303970,366.613953 227.991913,363.516479 
	C227.991913,356.575623 227.991913,349.776337 228.261536,342.288330 
	C228.486343,340.563293 228.711151,338.838287 229.076950,336.374908 
	C229.379639,334.911804 229.682327,333.448700 230.535126,332.603485 
	C230.359909,338.512878 230.056015,344.421814 230.033447,350.331787 
	C229.963852,368.554626 230.001694,386.777893 229.150192,404.845062 
	C225.460938,405.501068 221.745605,406.037109 218.086655,406.832520 
	C194.320724,411.998779 170.756683,418.242462 151.637207,434.097351 
	C138.850418,444.700897 133.891907,456.984192 148.052399,471.862030 
	C156.484467,480.721252 166.961685,486.174255 178.030457,490.762177 
	C194.751633,497.692993 212.122314,502.257202 230.765640,505.287415 
	C239.841080,506.523926 248.916504,507.760437 258.860657,509.169495 
	C261.213440,509.206879 263.566254,509.244263 266.409790,509.978607 
	C276.268982,510.316589 286.128174,510.654541 296.868530,511.144226 
	C299.244598,511.094635 301.620697,511.045013 304.898407,511.274719 
	C314.272095,510.849426 323.645752,510.424103 333.846069,510.149536 
M124.998863,222.028091 
	C114.038208,222.051651 103.077560,222.075195 91.259888,222.083420 
	C89.301186,222.399887 87.353432,222.843582 85.382103,223.013138 
	C65.630737,224.711838 45.862545,226.230194 26.129625,228.118408 
	C20.573853,228.650040 15.118334,230.229416 9.616832,231.328217 
	C9.696766,231.840637 9.776700,232.353058 9.856634,232.865479 
	C11.561055,232.749054 13.282574,232.746918 14.966722,232.494965 
	C20.192617,231.713150 25.380938,230.627487 30.626450,230.040558 
	C41.127960,228.865540 51.648666,227.835388 62.178543,226.948349 
	C71.799629,226.137848 81.443275,225.595184 91.998093,224.972839 
	C103.637238,224.958725 115.276382,224.944611 127.756905,224.973541 
	C133.896637,225.125748 134.799988,226.131210 136.312775,234.782761 
	C115.030014,236.856049 93.753227,238.787933 72.510117,241.037827 
	C51.297794,243.284424 30.608364,248.025162 10.302865,254.619995 
	C11.456136,255.455505 12.486451,255.532547 13.457982,255.329010 
	C28.856380,252.102783 44.160851,248.323364 59.664402,245.733719 
	C74.814987,243.203079 90.159714,241.815460 105.433731,240.051682 
	C112.497856,239.235947 119.584984,238.470764 126.682961,238.142029 
	C132.737167,237.861633 138.651443,236.545929 142.906693,244.006088 
	C153.052536,261.793457 169.110367,273.360046 187.337448,281.876068 
	C210.639923,292.763428 235.499710,297.938263 261.002014,298.773071 
	C287.626007,299.644653 314.302094,299.114227 340.952393,298.868713 
	C348.211823,298.801849 355.540009,298.010254 362.699646,296.764160 
	C388.500275,292.273682 413.765106,286.312622 434.725922,269.046570 
	C442.629395,262.536194 449.523804,255.334396 454.437317,245.806137 
	C454.709839,245.604965 454.886780,245.339966 454.977203,244.523361 
	C454.977203,244.523361 455.007843,244.036423 455.438812,243.810287 
	C455.712067,243.608978 455.887207,243.343063 455.969177,242.512909 
	C455.969177,242.512909 456.002533,242.014374 456.431030,241.795105 
	C456.701569,241.597794 456.878876,241.337051 456.974762,240.519836 
	C456.974762,240.519836 457.005493,240.027588 457.430573,239.798599 
	C457.699402,239.598511 457.877075,239.336578 457.975250,238.513840 
	C457.975250,238.513840 458.002716,238.015457 458.936890,238.027786 
	C502.787170,238.840225 545.982117,244.721222 588.656250,254.742691 
	C546.849121,241.369171 503.593872,237.441345 460.166565,234.181747 
	C461.124695,231.353607 462.198334,228.558701 463.023010,225.692169 
	C470.473145,199.795731 471.531525,173.352249 468.936340,146.756424 
	C466.733917,124.185478 457.253967,104.743431 441.786072,88.126945 
	C440.221771,86.446480 439.304199,83.487785 439.343018,81.143066 
	C439.408020,77.214012 440.512634,73.306046 441.131500,69.381592 
	C443.762024,52.701317 440.470123,36.716103 435.409119,20.942301 
	C434.220703,17.238411 431.658173,15.470288 427.818939,15.995939 
	C425.263947,16.345751 422.764862,17.103493 420.240662,17.678188 
	C413.698883,19.167576 406.701019,19.648056 400.710388,22.356451 
	C388.330688,27.953390 376.525787,34.812634 364.386780,40.959770 
	C362.308685,42.012096 359.582458,42.939449 357.433319,42.515827 
	C338.236694,38.731995 319.020813,35.749367 299.325226,36.919662 
	C290.950958,37.417252 282.424438,36.208366 274.142853,37.217388 
	C260.522949,38.876839 247.059708,41.796131 233.494110,43.956223 
	C231.471268,44.278324 228.962280,43.893322 227.168747,42.925957 
	C216.200821,37.010204 205.634796,30.291050 194.426117,24.896633 
	C183.649078,19.709948 172.177124,16.140488 159.958374,15.935126 
	C156.705429,15.880454 154.535080,17.009224 153.725128,20.369076 
	C152.685104,24.683289 151.678574,29.018158 150.353546,33.248890 
	C144.820724,50.914722 145.777328,68.462509 150.727264,86.069504 
	C151.215286,87.805420 150.464096,90.554527 149.273483,91.994408 
	C137.743713,105.938034 128.840393,121.329651 126.143372,139.316254 
	C124.357361,151.227280 124.185471,163.452118 124.167084,175.537796 
	C124.145348,189.834381 126.238922,203.944489 130.710999,217.617020 
	C131.195618,219.098618 131.479965,220.645691 131.930573,222.457382 
	C129.497971,222.300385 127.708549,222.184891 124.998863,222.028091 
M116.283829,323.069275 
	C117.524086,321.263428 120.008255,319.266632 119.766029,317.688324 
	C119.100227,313.350128 117.290741,309.187439 115.649025,304.067078 
	C114.182526,308.695862 112.821548,312.274872 111.947952,315.969177 
	C111.211159,319.084961 112.215187,321.737488 116.283829,323.069275 
M587.302917,230.655655 
	C572.893311,227.560013 567.450562,227.069016 564.539124,229.329895 
	C573.509521,230.697952 581.749451,231.954605 589.989441,233.211273 
	C590.107117,232.741180 590.224792,232.271088 590.342468,231.801010 
	C589.559143,231.484955 588.775757,231.168900 587.302917,230.655655 
z"/>
<path fill="#211F1F" opacity="1.000000" stroke="none" 
	d="
M458.002747,238.015472 
	C458.002716,238.015457 457.975250,238.513840 457.774048,238.895538 
	C457.328705,239.485733 457.139587,239.735855 457.005493,240.027588 
	C457.005493,240.027588 456.974762,240.519836 456.774200,240.897034 
	C456.330322,241.480087 456.139954,241.726807 456.002533,242.014374 
	C456.002533,242.014374 455.969177,242.512909 455.771057,242.896179 
	C455.328400,243.489853 455.140045,243.742172 455.007843,244.036423 
	C455.007843,244.036423 454.977203,244.523361 454.776367,244.900360 
	C454.330048,245.487045 454.140442,245.738831 454.006714,246.032684 
	C449.523804,255.334396 442.629395,262.536194 434.725922,269.046570 
	C413.765106,286.312622 388.500275,292.273682 362.699646,296.764160 
	C355.540009,298.010254 348.211823,298.801849 340.952393,298.868713 
	C314.302094,299.114227 287.626007,299.644653 261.002014,298.773071 
	C235.499710,297.938263 210.639923,292.763428 187.337448,281.876068 
	C169.110367,273.360046 153.052536,261.793457 142.906693,244.006088 
	C138.651443,236.545929 132.737167,237.861633 126.682961,238.142029 
	C119.584984,238.470764 112.497856,239.235947 105.433731,240.051682 
	C90.159714,241.815460 74.814987,243.203079 59.664402,245.733719 
	C44.160851,248.323364 28.856380,252.102783 13.457982,255.329010 
	C12.486451,255.532547 11.456136,255.455505 10.302865,254.619995 
	C30.608364,248.025162 51.297794,243.284424 72.510117,241.037827 
	C93.753227,238.787933 115.030014,236.856049 136.312775,234.782761 
	C134.799988,226.131210 133.896637,225.125748 127.016006,224.706909 
	C116.798203,224.293121 107.321526,224.081085 97.844200,224.046265 
	C95.589577,224.037979 93.332779,224.622604 91.076981,224.934479 
	C81.443275,225.595184 71.799629,226.137848 62.178543,226.948349 
	C51.648666,227.835388 41.127960,228.865540 30.626450,230.040558 
	C25.380938,230.627487 20.192617,231.713150 14.966722,232.494965 
	C13.282574,232.746918 11.561055,232.749054 9.856634,232.865479 
	C9.776700,232.353058 9.696766,231.840637 9.616832,231.328217 
	C15.118334,230.229416 20.573853,228.650040 26.129625,228.118408 
	C45.862545,226.230194 65.630737,224.711838 85.382103,223.013138 
	C87.353432,222.843582 89.301186,222.399887 92.007797,222.329681 
	C100.891151,222.717361 109.026619,222.952072 117.162041,222.950516 
	C120.081131,222.949951 123.000107,222.379669 125.919136,222.069397 
	C127.708549,222.184891 129.497971,222.300385 131.930573,222.457382 
	C131.479965,220.645691 131.195618,219.098618 130.710999,217.617020 
	C126.238922,203.944489 124.145348,189.834381 124.167084,175.537796 
	C124.185471,163.452118 124.357361,151.227280 126.143372,139.316254 
	C128.840393,121.329651 137.743713,105.938034 149.273483,91.994408 
	C150.464096,90.554527 151.215286,87.805420 150.727264,86.069504 
	C145.777328,68.462509 144.820724,50.914722 150.353546,33.248890 
	C151.678574,29.018158 152.685104,24.683289 153.725128,20.369076 
	C154.535080,17.009224 156.705429,15.880454 159.958374,15.935126 
	C172.177124,16.140488 183.649078,19.709948 194.426117,24.896633 
	C205.634796,30.291050 216.200821,37.010204 227.168747,42.925957 
	C228.962280,43.893322 231.471268,44.278324 233.494110,43.956223 
	C247.059708,41.796131 260.522949,38.876839 274.142853,37.217388 
	C282.424438,36.208366 290.950958,37.417252 299.325226,36.919662 
	C319.020813,35.749367 338.236694,38.731995 357.433319,42.515827 
	C359.582458,42.939449 362.308685,42.012096 364.386780,40.959770 
	C376.525787,34.812634 388.330688,27.953390 400.710388,22.356451 
	C406.701019,19.648056 413.698883,19.167576 420.240662,17.678188 
	C422.764862,17.103493 425.263947,16.345751 427.818939,15.995939 
	C431.658173,15.470288 434.220703,17.238411 435.409119,20.942301 
	C440.470123,36.716103 443.762024,52.701317 441.131500,69.381592 
	C440.512634,73.306046 439.408020,77.214012 439.343018,81.143066 
	C439.304199,83.487785 440.221771,86.446480 441.786072,88.126945 
	C457.253967,104.743431 466.733917,124.185478 468.936340,146.756424 
	C471.531525,173.352249 470.473145,199.795731 463.023010,225.692169 
	C462.198334,228.558701 461.124695,231.353607 459.894165,234.747192 
	C459.082123,236.213577 458.542419,237.114517 458.002747,238.015472 
M170.027252,193.868698 
	C169.743668,194.819305 169.314316,195.752396 169.197571,196.723068 
	C165.031418,231.361618 177.667877,262.916077 215.728027,276.011810 
	C232.331894,281.724884 249.474487,284.420959 266.935272,285.153259 
	C298.874634,286.492798 330.839264,287.485779 362.617615,282.882263 
	C378.158813,280.630951 393.301208,276.516449 405.483643,265.935730 
	C426.305725,247.851212 429.358063,223.759048 427.567139,197.427170 
	C427.403564,196.783508 427.217590,196.144608 427.079681,195.495514 
	C421.823975,170.759064 401.837891,151.535278 376.831116,149.181610 
	C363.027100,147.882355 348.933685,148.438202 335.057068,149.401535 
	C311.448761,151.040466 287.932190,151.249481 264.307098,149.646820 
	C249.267700,148.626602 234.056183,148.210403 219.039520,149.239883 
	C196.395920,150.792267 174.347824,171.371124 170.027252,193.868698 
z"/>
<path fill="#211F1F" opacity="1.000000" stroke="none" 
	d="
M230.014343,332.014008 
	C231.008118,329.974152 232.014771,327.940430 232.993073,325.893188 
	C235.417343,320.820190 237.645050,315.639252 240.364792,310.730560 
	C241.113831,309.378693 243.213531,308.354034 244.869263,307.999054 
	C251.826752,306.507355 258.810547,304.557465 265.858795,304.187622 
	C281.782440,303.352081 297.773254,302.678345 313.692230,303.228088 
	C326.369904,303.665924 339.257782,304.703949 350.469208,312.186371 
	C357.180298,316.665283 361.676025,322.825745 365.869171,329.532440 
	C369.672241,335.615173 369.771088,342.297394 369.894562,348.865509 
	C370.232422,366.835724 370.037201,384.815948 369.772156,403.585754 
	C368.138428,420.374054 370.358154,434.510864 387.243774,442.147125 
	C391.707886,444.165955 391.555939,447.590271 387.767395,451.118195 
	C387.253662,451.338989 387.010956,451.579498 386.816040,451.827972 
	C386.863800,451.835938 386.855438,451.739471 386.408081,451.790405 
	C377.634003,450.600891 369.307251,449.360443 360.666992,447.965149 
	C349.477478,442.785767 342.709198,434.644196 342.025574,422.420471 
	C341.611084,415.008820 341.958466,407.554565 341.960083,399.643311 
	C341.625000,385.080963 341.523529,370.983887 340.857880,356.913483 
	C340.557220,350.557526 338.894684,344.350677 334.490051,339.423462 
	C333.992126,339.479523 333.494202,339.535583 332.996277,339.591644 
	C332.996277,359.719849 332.996277,379.848053 332.984802,400.446259 
	C332.972107,413.670197 332.723663,426.430481 333.053253,439.175873 
	C333.287720,448.243896 334.861237,457.023071 344.083832,462.416718 
	C346.124786,466.493622 345.493164,469.587219 341.612244,471.987946 
	C339.826447,472.353516 338.416412,472.710205 336.692871,472.840332 
	C328.137970,471.271271 320.719360,467.983185 313.763062,462.858887 
	C306.031158,456.283539 303.267944,447.974640 303.253815,438.435760 
	C303.234161,425.206085 303.112305,411.976532 302.943237,398.685333 
	C302.852295,398.623718 302.943207,398.423676 303.161530,398.021393 
	C303.562408,396.487518 303.902191,395.356171 303.904053,394.224274 
	C303.936035,375.015930 303.938019,355.807465 303.894379,336.599152 
	C303.891876,335.494171 303.441589,334.390198 302.999451,332.950348 
	C298.049011,329.827148 296.018127,330.792603 296.005493,336.074036 
	C295.955322,357.039764 295.992035,378.005768 295.991211,399.442078 
	C295.982941,411.900146 295.684814,423.897217 296.065704,435.872681 
	C296.401215,446.423065 293.464874,455.453003 285.622070,463.040100 
	C278.883240,468.738495 271.018951,471.026215 262.591705,472.910980 
	C260.817688,472.781708 259.451752,472.702850 257.819580,472.410309 
	C252.274261,469.563507 253.816696,465.799500 256.128632,461.749603 
	C261.523468,458.606842 265.714325,454.646454 265.833771,448.472107 
	C266.147736,432.241364 265.999756,416.001648 265.957947,399.648895 
	C265.880005,399.532257 265.928619,399.255920 266.161102,398.880524 
	C266.562103,397.536438 266.876007,396.567993 266.877625,395.599030 
	C266.907928,377.540283 266.913849,359.481476 266.871246,341.422791 
	C266.868591,340.308655 266.422516,339.195587 265.861084,338.208588 
	C258.900055,343.554016 258.416046,351.297150 258.149048,358.603027 
	C257.634155,372.694153 257.991455,386.817169 257.964966,401.399658 
	C257.940430,406.169464 257.799622,410.471741 257.960571,414.762665 
	C258.524750,429.803375 253.347931,441.518372 238.629242,448.051758 
	C229.819916,449.399902 221.397308,450.750488 212.652298,451.936432 
	C210.874832,450.395020 208.186554,448.952423 208.255737,447.657043 
	C208.357727,445.746887 210.162994,443.666168 211.735733,442.179474 
	C212.973129,441.009827 215.009964,440.730042 216.597626,439.879425 
	C224.573853,435.606018 229.652939,429.305725 229.967789,419.934204 
	C230.134842,414.961731 229.997635,409.979065 229.997787,405.000977 
	C230.001694,386.777893 229.963852,368.554626 230.033447,350.331787 
	C230.056015,344.421814 230.359909,338.512878 230.267639,332.301636 
	C230.000137,331.999756 230.014343,332.014008 230.014343,332.014008 
z"/>
<path fill="#9CDAF1" opacity="1.000000" stroke="none" 
	d="
M388.038483,451.137909 
	C391.555939,447.590271 391.707886,444.165955 387.243774,442.147125 
	C370.358154,434.510864 368.138428,420.374054 369.758850,404.034912 
	C393.155914,407.654083 415.918884,412.980988 436.897217,423.892395 
	C446.129181,428.694214 454.781616,434.268799 460.692383,443.591614 
	C466.598602,452.907288 464.640778,462.119324 458.055634,469.592987 
	C444.769379,484.671967 426.767334,491.632874 408.190491,497.045624 
	C395.908112,500.624359 383.268311,502.976257 370.384399,505.454346 
	C369.977753,495.588867 369.739807,486.138916 370.042419,476.706299 
	C370.316772,468.154388 373.782227,461.070648 381.164154,456.197021 
	C383.168579,454.873718 384.964081,453.233978 386.855438,451.739502 
	C386.855438,451.739471 386.863800,451.835938 387.068176,451.805878 
	C387.527893,451.563171 387.783173,451.350555 388.038483,451.137909 
z"/>
<path fill="#9CDAF1" opacity="1.000000" stroke="none" 
	d="
M229.573990,404.923035 
	C229.997635,409.979065 230.134842,414.961731 229.967789,419.934204 
	C229.652939,429.305725 224.573853,435.606018 216.597626,439.879425 
	C215.009964,440.730042 212.973129,441.009827 211.735733,442.179474 
	C210.162994,443.666168 208.357727,445.746887 208.255737,447.657043 
	C208.186554,448.952423 210.874832,450.395020 212.885345,452.176331 
	C224.786209,458.733154 230.622711,467.974945 230.062180,481.165680 
	C229.725388,489.091034 229.997162,497.042267 229.995438,504.981873 
	C212.122314,502.257202 194.751633,497.692993 178.030457,490.762177 
	C166.961685,486.174255 156.484467,480.721252 148.052399,471.862030 
	C133.891907,456.984192 138.850418,444.700897 151.637207,434.097351 
	C170.756683,418.242462 194.320724,411.998779 218.086655,406.832520 
	C221.745605,406.037109 225.460938,405.501068 229.573990,404.923035 
z"/>
<path fill="#212020" opacity="1.000000" stroke="none" 
	d="
M227.991913,342.977051 
	C227.991913,349.776337 227.991913,356.575623 227.991913,363.516479 
	C214.303970,366.613953 200.500870,367.253571 186.776413,363.886200 
	C169.427643,359.629608 157.563858,348.430145 148.543915,333.392853 
	C143.541336,325.053009 138.055984,316.823029 131.609726,309.594482 
	C127.569618,305.064087 121.153236,302.731476 116.167717,298.933990 
	C113.453926,296.866882 109.568443,293.750275 109.634056,291.194946 
	C109.748291,286.746368 114.961700,286.554382 118.391472,286.897614 
	C124.534424,287.512421 130.940536,288.208099 136.585815,290.484222 
	C146.375137,294.431183 153.474167,301.952301 159.019028,310.929443 
	C164.381775,319.611725 170.675461,327.394012 179.860565,332.451385 
	C195.122482,340.854675 210.531052,338.969482 226.047073,333.423828 
	C227.140991,333.032806 228.201691,332.548828 229.646088,332.061035 
	C230.014343,332.014008 230.000137,331.999756 229.992569,331.992676 
	C229.682327,333.448700 229.379639,334.911804 228.632187,336.648102 
	C226.529037,337.910767 224.870636,338.900208 223.212234,339.889648 
	C224.805466,340.918762 226.398697,341.947906 227.991913,342.977051 
M167.012680,325.660065 
	C164.899384,323.735992 162.524445,321.288116 160.525970,325.328949 
	C160.007126,326.378021 161.573212,328.908051 162.780029,330.198029 
	C163.547150,331.017975 165.417633,330.805725 166.793365,331.056335 
	C166.990967,329.477478 167.188568,327.898590 167.012680,325.660065 
M197.437912,343.072845 
	C196.744522,342.396210 196.047760,341.145874 195.358368,341.149963 
	C193.246902,341.162384 191.138275,341.656403 189.028534,341.963104 
	C189.248596,343.141632 189.223984,345.204498 189.731323,345.344849 
	C191.870316,345.936737 194.169861,346.096832 196.405960,346.066559 
	C196.865021,346.060364 197.303818,344.557800 197.437912,343.072845 
M212.140228,347.066345 
	C213.261978,345.912689 214.383713,344.759003 215.505447,343.605347 
	C214.437820,342.718414 213.196289,340.949493 212.336945,341.118927 
	C210.220520,341.536224 208.279663,342.844147 206.268204,343.793884 
	C207.965836,344.896332 209.663452,345.998779 212.140228,347.066345 
M173.012848,339.126495 
	C174.616730,340.108398 176.130112,341.536713 177.861862,341.887756 
	C178.755463,342.068878 180.037186,340.335266 181.143524,339.466766 
	C179.599945,337.986389 178.224396,336.184692 176.404373,335.233002 
	C175.896988,334.967712 174.075592,337.215363 173.012848,339.126495 
M156.234741,312.699036 
	C154.612854,312.044830 152.990967,311.390594 151.369080,310.736389 
	C151.153503,312.190063 150.246048,314.215271 150.872360,314.973541 
	C152.028595,316.373352 154.084457,317.030060 155.765503,317.996368 
	C156.089386,316.434113 156.413284,314.871887 156.234741,312.699036 
M143.161850,305.576569 
	C144.475540,305.203125 145.789215,304.829681 147.102890,304.456207 
	C146.476318,303.212830 146.124374,301.628235 145.136841,300.833282 
	C144.337296,300.189667 142.773010,300.496033 141.547928,300.381042 
	C141.881699,301.929352 142.215454,303.477692 143.161850,305.576569 
z"/>
<path fill="#7DBBE6" opacity="1.000000" stroke="none" 
	d="
M386.408081,451.790405 
	C384.964081,453.233978 383.168579,454.873718 381.164154,456.197021 
	C373.782227,461.070648 370.316772,468.154388 370.042419,476.706299 
	C369.739807,486.138916 369.977753,495.588867 369.984009,505.497559 
	C360.942627,507.066681 351.897491,508.169464 342.425598,508.666321 
	C341.995178,496.033264 341.991577,484.006195 341.988007,471.979095 
	C345.493164,469.587219 346.124786,466.493622 344.379089,462.248962 
	C350.009918,457.182739 355.495239,452.651398 360.980530,448.120056 
	C369.307251,449.360443 377.634003,450.600891 386.408081,451.790405 
z"/>
<path fill="#7DBBE6" opacity="1.000000" stroke="none" 
	d="
M230.380539,505.134644 
	C229.997162,497.042267 229.725388,489.091034 230.062180,481.165680 
	C230.622711,467.974945 224.786209,458.733154 213.207748,452.341003 
	C221.397308,450.750488 229.819916,449.399902 238.854004,448.301544 
	C244.928741,453.020294 250.391998,457.486786 255.855255,461.953278 
	C253.816696,465.799500 252.274261,469.563507 257.796875,472.903809 
	C258.024261,485.406281 258.008087,497.201599 257.991943,508.996948 
	C248.916504,507.760437 239.841080,506.523926 230.380539,505.134644 
z"/>
<path fill="#7DBBE6" opacity="1.000000" stroke="none" 
	d="
M262.999817,472.961365 
	C271.018951,471.026215 278.883240,468.738495 285.767761,463.359924 
	C288.774841,469.121857 292.585114,474.473267 293.582367,480.305664 
	C295.304565,490.377228 295.279419,500.747559 295.987366,510.992554 
	C286.128174,510.654541 276.268982,510.316589 266.190735,509.143890 
	C265.809692,496.456909 267.329041,484.463287 262.999817,472.961365 
z"/>
<path fill="#7DBBE6" opacity="1.000000" stroke="none" 
	d="
M313.960938,463.133820 
	C320.719360,467.983185 328.137970,471.271271 336.536011,473.178772 
	C332.310516,485.508850 332.995270,497.787292 333.019440,509.998810 
	C323.645752,510.424103 314.272095,510.849426 304.449280,510.666809 
	C303.881958,493.687317 303.263763,477.209595 313.960938,463.133820 
z"/>
<path fill="#9CDAF1" opacity="1.000000" stroke="none" 
	d="
M313.763062,462.858887 
	C303.263763,477.209595 303.881958,493.687317 303.998474,510.527130 
	C301.620697,511.045013 299.244598,511.094635 296.427948,511.068390 
	C295.279419,500.747559 295.304565,490.377228 293.582367,480.305664 
	C292.585114,474.473267 288.774841,469.121857 286.084869,463.234131 
	C293.464874,455.453003 296.401215,446.423065 296.065704,435.872681 
	C295.684814,423.897217 295.982941,411.900146 296.425842,399.370422 
	C298.921906,398.801239 300.978058,398.774109 303.034180,398.746948 
	C303.112305,411.976532 303.234161,425.206085 303.253815,438.435760 
	C303.267944,447.974640 306.031158,456.283539 313.763062,462.858887 
z"/>
<path fill="#1F1E1E" opacity="1.000000" stroke="none" 
	d="
M458.469818,238.021637 
	C458.542419,237.114517 459.082123,236.213577 459.871796,235.113678 
	C503.593872,237.441345 546.849121,241.369171 588.656250,254.742691 
	C545.982117,244.721222 502.787170,238.840225 458.469818,238.021637 
z"/>
<path fill="#9CDAF1" opacity="1.000000" stroke="none" 
	d="
M333.432739,510.074158 
	C332.995270,497.787292 332.310516,485.508850 336.849548,473.405334 
	C338.416412,472.710205 339.826447,472.353516 341.612244,471.987946 
	C341.991577,484.006195 341.995178,496.033264 341.997314,508.528870 
	C339.279266,509.381409 336.562653,509.765472 333.432739,510.074158 
z"/>
<path fill="#9CDAF1" opacity="1.000000" stroke="none" 
	d="
M262.591705,472.910980 
	C267.329041,484.463287 265.809692,496.456909 265.945374,508.795410 
	C263.566254,509.244263 261.213440,509.206879 258.426300,509.083221 
	C258.008087,497.201599 258.024261,485.406281 258.063110,473.117432 
	C259.451752,472.702850 260.817688,472.781708 262.591705,472.910980 
z"/>
<path fill="#211F1F" opacity="1.000000" stroke="none" 
	d="
M506.913208,222.074341 
	C525.167969,223.587967 543.423096,225.096603 561.673462,226.661194 
	C561.955811,226.685394 562.179077,227.399445 563.128235,228.883102 
	C557.890869,228.491348 553.474976,228.199890 549.066467,227.822144 
	C542.488525,227.258530 535.911194,226.679764 529.342529,226.018875 
	C525.245361,225.606644 521.175537,224.877914 517.072510,224.587433 
	C514.650085,224.415970 512.186707,224.822601 509.008362,224.704742 
	C498.132324,224.293228 487.989929,224.094254 477.846832,224.045090 
	C475.925873,224.035782 474.002045,224.621109 472.079529,224.932068 
	C470.485199,224.756912 468.890869,224.581772 467.296539,224.406631 
	C467.248657,224.025497 467.200745,223.644363 467.152863,223.263245 
	C468.891418,222.867828 470.630005,222.472397 473.065094,222.328766 
	C481.893616,222.719864 490.025665,222.951736 498.157593,222.949219 
	C501.076233,222.948303 503.994690,222.382370 506.913208,222.074341 
z"/>
<path fill="#9CDAF1" opacity="1.000000" stroke="none" 
	d="
M115.886383,323.059753 
	C112.215187,321.737488 111.211159,319.084961 111.947952,315.969177 
	C112.821548,312.274872 114.182526,308.695862 115.649025,304.067078 
	C117.290741,309.187439 119.100227,313.350128 119.766029,317.688324 
	C120.008255,319.266632 117.524086,321.263428 115.886383,323.059753 
z"/>
<path fill="#211F1F" opacity="1.000000" stroke="none" 
	d="
M587.647705,230.754242 
	C588.775757,231.168900 589.559143,231.484955 590.342468,231.801010 
	C590.224792,232.271088 590.107117,232.741180 589.989441,233.211273 
	C581.749451,231.954605 573.509521,230.697952 564.539124,229.329895 
	C567.450562,227.069016 572.893311,227.560013 587.647705,230.754242 
z"/>
<path fill="#2F2E2E" opacity="1.000000" stroke="none" 
	d="
M472.539795,224.952667 
	C474.002045,224.621109 475.925873,224.035782 477.846832,224.045090 
	C487.989929,224.094254 498.132324,224.293228 508.595184,224.685303 
	C496.943634,224.944672 484.971832,224.958969 472.539795,224.952667 
z"/>
<path fill="#2F2E2E" opacity="1.000000" stroke="none" 
	d="
M91.537537,224.953674 
	C93.332779,224.622604 95.589577,224.037979 97.844200,224.046265 
	C107.321526,224.081085 116.798203,224.293121 126.595322,224.685394 
	C115.276382,224.944611 103.637238,224.958725 91.537537,224.953674 
z"/>
<path fill="#2F2E2E" opacity="1.000000" stroke="none" 
	d="
M506.453735,222.052612 
	C503.994690,222.382370 501.076233,222.948303 498.157593,222.949219 
	C490.025665,222.951736 481.893616,222.719864 473.442749,222.342712 
	C484.080658,222.080215 495.037476,222.055557 506.453735,222.052612 
z"/>
<path fill="#2F2E2E" opacity="1.000000" stroke="none" 
	d="
M125.459000,222.048752 
	C123.000107,222.379669 120.081131,222.949951 117.162041,222.950516 
	C109.026619,222.952072 100.891151,222.717361 92.436310,222.337341 
	C103.077560,222.075195 114.038208,222.051651 125.459000,222.048752 
z"/>
<path fill="#97D3E9" opacity="1.000000" stroke="none" 
	d="
M228.126724,342.632690 
	C226.398697,341.947906 224.805466,340.918762 223.212234,339.889648 
	C224.870636,338.900208 226.529037,337.910767 228.561707,337.017273 
	C228.711151,338.838287 228.486343,340.563293 228.126724,342.632690 
z"/>
<path fill="#1F1E1E" opacity="1.000000" stroke="none" 
	d="
M455.223328,243.923355 
	C455.140045,243.742172 455.328400,243.489853 455.768616,243.145996 
	C455.887207,243.343063 455.712067,243.608978 455.223328,243.923355 
z"/>
<path fill="#1F1E1E" opacity="1.000000" stroke="none" 
	d="
M456.216797,241.904739 
	C456.139954,241.726807 456.330322,241.480087 456.768250,241.143585 
	C456.878876,241.337051 456.701569,241.597794 456.216797,241.904739 
z"/>
<path fill="#1F1E1E" opacity="1.000000" stroke="none" 
	d="
M457.218018,239.913086 
	C457.139587,239.735855 457.328705,239.485733 457.768219,239.145020 
	C457.877075,239.336578 457.699402,239.598511 457.218018,239.913086 
z"/>
<path fill="#1F1E1E" opacity="1.000000" stroke="none" 
	d="
M454.222015,245.919403 
	C454.140442,245.738831 454.330048,245.487045 454.771790,245.144257 
	C454.886780,245.339966 454.709839,245.604965 454.222015,245.919403 
z"/>
<path fill="#F4CBB2" opacity="1.000000" stroke="none" 
	d="
M427.321014,198.160400 
	C429.358063,223.759048 426.305725,247.851212 405.483643,265.935730 
	C393.301208,276.516449 378.158813,280.630951 362.617615,282.882263 
	C330.839264,287.485779 298.874634,286.492798 266.935272,285.153259 
	C249.474487,284.420959 232.331894,281.724884 215.728027,276.011810 
	C177.667877,262.916077 165.031418,231.361618 169.197571,196.723068 
	C169.314316,195.752396 169.743668,194.819305 170.447113,193.380615 
	C174.177414,187.375702 177.121948,181.595200 180.870468,176.394135 
	C190.159882,163.505112 202.589645,154.606598 218.683685,154.288742 
	C237.562805,153.915863 256.476898,155.687393 275.384186,156.245163 
	C289.664215,156.666443 303.969788,157.093063 318.241577,156.701416 
	C335.971710,156.214844 353.669098,154.607742 371.398315,153.999222 
	C390.535980,153.342346 405.549316,161.533356 416.100616,177.312576 
	C420.467285,183.842880 423.617554,191.186615 427.321014,198.160400 
M361.889313,246.729065 
	C373.970123,253.921295 386.897980,247.575409 393.025085,238.178375 
	C403.428711,222.222519 403.502014,197.631470 392.953766,181.806259 
	C382.590912,166.259125 362.680206,166.358047 352.749268,182.202148 
	C346.554810,192.084915 344.115387,203.099060 345.301697,214.670868 
	C346.581726,227.156570 350.269073,238.645889 361.889313,246.729065 
M249.874420,234.457642 
	C258.806824,216.768631 258.196289,199.046097 248.193161,182.310822 
	C238.702667,166.433167 219.579727,166.339447 209.489410,179.772903 
	C196.501129,197.064499 196.734085,222.763199 209.471664,240.293030 
	C213.634109,246.021515 219.690964,249.617294 227.080811,249.734955 
	C237.755569,249.904907 244.860382,244.220215 249.874420,234.457642 
M300.929230,272.665833 
	C306.213013,271.561279 310.603668,269.036011 313.045380,264.092896 
	C313.686829,262.794250 313.089050,260.883484 313.060394,259.253815 
	C311.828125,260.040253 310.180573,260.545959 309.429169,261.657440 
	C303.277344,270.756989 293.727509,270.749939 287.601349,261.641815 
	C286.860626,260.540558 285.211212,260.050537 283.982971,259.277222 
	C283.913055,260.748627 283.288391,262.498840 283.864716,263.645386 
	C287.188324,270.257446 292.873505,273.002960 300.929230,272.665833 
M303.534332,240.069183 
	C302.723053,239.513245 301.802887,238.375931 301.119720,238.503906 
	C298.426270,239.008453 294.900421,239.148148 293.432892,240.893875 
	C292.140533,242.431198 292.199005,246.661942 293.464569,248.355072 
	C294.739075,250.060135 298.341217,250.970398 300.736816,250.681519 
	C304.818024,250.189362 305.924591,246.068222 303.534332,240.069183 
z"/>
<path fill="#C29A86" opacity="1.000000" stroke="none" 
	d="
M427.444092,197.793793 
	C423.617554,191.186615 420.467285,183.842880 416.100616,177.312576 
	C405.549316,161.533356 390.535980,153.342346 371.398315,153.999222 
	C353.669098,154.607742 335.971710,156.214844 318.241577,156.701416 
	C303.969788,157.093063 289.664215,156.666443 275.384186,156.245163 
	C256.476898,155.687393 237.562805,153.915863 218.683685,154.288742 
	C202.589645,154.606598 190.159882,163.505112 180.870468,176.394135 
	C177.121948,181.595200 174.177414,187.375702 170.537750,192.985596 
	C174.347824,171.371124 196.395920,150.792267 219.039520,149.239883 
	C234.056183,148.210403 249.267700,148.626602 264.307098,149.646820 
	C287.932190,151.249481 311.448761,151.040466 335.057068,149.401535 
	C348.933685,148.438202 363.027100,147.882355 376.831116,149.181610 
	C401.837891,151.535278 421.823975,170.759064 427.079681,195.495514 
	C427.217590,196.144608 427.403564,196.783508 427.444092,197.793793 
z"/>
<path fill="#9BD8EF" opacity="1.000000" stroke="none" 
	d="
M360.667023,447.965149 
	C355.495239,452.651398 350.009918,457.182739 344.229309,461.881836 
	C334.861237,457.023071 333.287720,448.243896 333.053253,439.175873 
	C332.723663,426.430481 332.972107,413.670197 333.428162,400.365234 
	C336.576508,399.915955 339.270020,400.017700 341.963562,400.119446 
	C341.958466,407.554565 341.611084,415.008820 342.025574,422.420471 
	C342.709198,434.644196 349.477478,442.785767 360.667023,447.965149 
z"/>
<path fill="#9BD9F0" opacity="1.000000" stroke="none" 
	d="
M256.128632,461.749603 
	C250.391998,457.486786 244.928741,453.020294 239.240723,448.304016 
	C253.347931,441.518372 258.524750,429.803375 257.960571,414.762665 
	C257.799622,410.471741 257.940430,406.169464 258.373718,401.350555 
	C261.215027,400.474304 263.625427,400.119934 266.035858,399.765533 
	C265.999756,416.001648 266.147736,432.241364 265.833771,448.472107 
	C265.714325,454.646454 261.523468,458.606842 256.128632,461.749603 
z"/>
<path fill="#000000" opacity="1.000000" stroke="none" 
	d="
M341.960083,399.643311 
	C339.270020,400.017700 336.576508,399.915955 333.439636,399.895264 
	C332.996277,379.848053 332.996277,359.719849 332.996277,339.591644 
	C333.494202,339.535583 333.992126,339.479523 334.490051,339.423462 
	C338.894684,344.350677 340.557220,350.557526 340.857880,356.913483 
	C341.523529,370.983887 341.625000,385.080963 341.960083,399.643311 
z"/>
<path fill="#000000" opacity="1.000000" stroke="none" 
	d="
M302.943237,398.685333 
	C300.978058,398.774109 298.921906,398.801239 296.431152,398.900024 
	C295.992035,378.005768 295.955322,357.039764 296.005493,336.074036 
	C296.018127,330.792603 298.049011,329.827148 302.966461,333.390289 
	C303.070221,355.584991 303.006714,377.004333 302.943207,398.423676 
	C302.943207,398.423676 302.852295,398.623718 302.943237,398.685333 
z"/>
<path fill="#000000" opacity="1.000000" stroke="none" 
	d="
M265.957947,399.648895 
	C263.625427,400.119934 261.215027,400.474304 258.395874,400.877808 
	C257.991455,386.817169 257.634155,372.694153 258.149048,358.603027 
	C258.416046,351.297150 258.900055,343.554016 265.841370,338.667450 
	C266.071808,359.085114 266.000214,379.170532 265.928619,399.255920 
	C265.928619,399.255920 265.880005,399.532257 265.957947,399.648895 
z"/>
<path fill="#3B4448" opacity="1.000000" stroke="none" 
	d="
M303.161530,398.021393 
	C303.006714,377.004333 303.070221,355.584991 303.166687,333.725708 
	C303.441589,334.390198 303.891876,335.494171 303.894379,336.599152 
	C303.938019,355.807465 303.936035,375.015930 303.904053,394.224274 
	C303.902191,395.356171 303.562408,396.487518 303.161530,398.021393 
z"/>
<path fill="#3F484C" opacity="1.000000" stroke="none" 
	d="
M266.161102,398.880524 
	C266.000214,379.170532 266.071808,359.085114 266.163055,338.540863 
	C266.422516,339.195587 266.868591,340.308655 266.871246,341.422791 
	C266.913849,359.481476 266.907928,377.540283 266.877625,395.599030 
	C266.876007,396.567993 266.562103,397.536438 266.161102,398.880524 
z"/>
<path fill="#7DBBE6" opacity="1.000000" stroke="none" 
	d="
M387.767395,451.118195 
	C387.783173,451.350555 387.527893,451.563171 387.020447,451.797913 
	C387.010956,451.579498 387.253662,451.338989 387.767395,451.118195 
z"/>
<path fill="#97D3E9" opacity="1.000000" stroke="none" 
	d="
M167.199432,325.989899 
	C167.188568,327.898590 166.990967,329.477478 166.793365,331.056335 
	C165.417633,330.805725 163.547150,331.017975 162.780029,330.198029 
	C161.573212,328.908051 160.007126,326.378021 160.525970,325.328949 
	C162.524445,321.288116 164.899384,323.735992 167.199432,325.989899 
z"/>
<path fill="#97D3E9" opacity="1.000000" stroke="none" 
	d="
M197.594940,343.408905 
	C197.303818,344.557800 196.865021,346.060364 196.405960,346.066559 
	C194.169861,346.096832 191.870316,345.936737 189.731323,345.344849 
	C189.223984,345.204498 189.248596,343.141632 189.028534,341.963104 
	C191.138275,341.656403 193.246902,341.162384 195.358368,341.149963 
	C196.047760,341.145874 196.744522,342.396210 197.594940,343.408905 
z"/>
<path fill="#97D3E9" opacity="1.000000" stroke="none" 
	d="
M211.750656,347.083801 
	C209.663452,345.998779 207.965836,344.896332 206.268219,343.793884 
	C208.279663,342.844147 210.220520,341.536224 212.336945,341.118927 
	C213.196289,340.949493 214.437820,342.718414 215.505463,343.605347 
	C214.383713,344.759003 213.261978,345.912689 211.750656,347.083801 
z"/>
<path fill="#97D3E9" opacity="1.000000" stroke="none" 
	d="
M172.934921,338.718353 
	C174.075592,337.215363 175.896988,334.967712 176.404373,335.233002 
	C178.224396,336.184692 179.599945,337.986389 181.143524,339.466766 
	C180.037186,340.335266 178.755463,342.068878 177.861862,341.887756 
	C176.130112,341.536713 174.616730,340.108398 172.934921,338.718353 
z"/>
<path fill="#97D3E9" opacity="1.000000" stroke="none" 
	d="
M156.485962,313.004333 
	C156.413284,314.871887 156.089386,316.434113 155.765503,317.996368 
	C154.084457,317.030060 152.028595,316.373352 150.872360,314.973541 
	C150.246048,314.215271 151.153503,312.190063 151.369080,310.736389 
	C152.990967,311.390594 154.612854,312.044830 156.485962,313.004333 
z"/>
<path fill="#9BD8EF" opacity="1.000000" stroke="none" 
	d="
M142.855530,305.301270 
	C142.215454,303.477692 141.881699,301.929352 141.547928,300.381042 
	C142.773010,300.496033 144.337296,300.189667 145.136841,300.833282 
	C146.124374,301.628235 146.476318,303.212830 147.102890,304.456207 
	C145.789215,304.829681 144.475540,305.203125 142.855530,305.301270 
z"/>
<path fill="#0A0807" opacity="1.000000" stroke="none" 
	d="
M361.559143,246.548920 
	C350.269073,238.645889 346.581726,227.156570 345.301697,214.670868 
	C344.115387,203.099060 346.554810,192.084915 352.749268,182.202148 
	C362.680206,166.358047 382.590912,166.259125 392.953766,181.806259 
	C403.502014,197.631470 403.428711,222.222519 393.025085,238.178375 
	C386.897980,247.575409 373.970123,253.921295 361.559143,246.548920 
M387.949432,215.046051 
	C388.542969,206.583740 387.503815,198.524231 382.447998,191.348145 
	C376.931213,183.517792 366.962219,182.540421 360.185638,189.254761 
	C350.679382,198.673691 349.466278,218.541107 357.749054,229.159958 
	C363.887482,237.029678 371.676514,238.611679 378.942352,233.146637 
	C384.591248,228.897781 386.464996,222.474197 387.949432,215.046051 
z"/>
<path fill="#0A0807" opacity="1.000000" stroke="none" 
	d="
M249.803574,234.828140 
	C244.860382,244.220215 237.755569,249.904907 227.080811,249.734955 
	C219.690964,249.617294 213.634109,246.021515 209.471664,240.293030 
	C196.734085,222.763199 196.501129,197.064499 209.489410,179.772903 
	C219.579727,166.339447 238.702667,166.433167 248.193161,182.310822 
	C258.196289,199.046097 258.806824,216.768631 249.803574,234.828140 
M238.143784,233.921814 
	C250.617889,225.420685 251.356918,201.797852 242.128174,190.714462 
	C235.567963,182.835876 226.365097,182.614166 219.366135,190.191055 
	C209.809662,200.536621 210.268311,221.802856 220.261703,231.717056 
	C225.441605,236.855896 230.754120,237.641174 238.143784,233.921814 
z"/>
<path fill="#B16256" opacity="1.000000" stroke="none" 
	d="
M300.527618,272.740601 
	C292.873505,273.002960 287.188324,270.257446 283.864716,263.645386 
	C283.288391,262.498840 283.913055,260.748627 283.982971,259.277222 
	C285.211212,260.050537 286.860626,260.540558 287.601349,261.641815 
	C293.727509,270.749939 303.277344,270.756989 309.429169,261.657440 
	C310.180573,260.545959 311.828125,260.040253 313.060394,259.253815 
	C313.089050,260.883484 313.686829,262.794250 313.045380,264.092896 
	C310.603668,269.036011 306.213013,271.561279 300.527618,272.740601 
z"/>
<path fill="#AE5D52" opacity="1.000000" stroke="none" 
	d="
M303.794373,240.377716 
	C305.924591,246.068222 304.818024,250.189362 300.736816,250.681519 
	C298.341217,250.970398 294.739075,250.060135 293.464569,248.355072 
	C292.199005,246.661942 292.140533,242.431198 293.432892,240.893875 
	C294.900421,239.148148 298.426270,239.008453 301.119720,238.503906 
	C301.802887,238.375931 302.723053,239.513245 303.794373,240.377716 
z"/>
<path fill="#AC5C51" opacity="1.000000" stroke="none" 
	d="
M387.938873,215.489563 
	C386.464996,222.474197 384.591248,228.897781 378.942352,233.146637 
	C371.676514,238.611679 363.887482,237.029678 357.749054,229.159958 
	C349.466278,218.541107 350.679382,198.673691 360.185638,189.254761 
	C366.962219,182.540421 376.931213,183.517792 382.447998,191.348145 
	C387.503815,198.524231 388.542969,206.583740 387.938873,215.489563 
M361.624084,202.141876 
	C363.937317,201.819382 366.397034,201.832397 368.458160,200.932480 
	C368.957611,200.714401 368.758301,196.937317 367.749237,195.802567 
	C366.835358,194.774857 364.065979,194.400101 362.667908,195.008530 
	C359.797363,196.257706 359.257874,198.808945 361.624084,202.141876 
z"/>
<path fill="#AB5C51" opacity="1.000000" stroke="none" 
	d="
M237.795441,234.089569 
	C230.754120,237.641174 225.441605,236.855896 220.261703,231.717056 
	C210.268311,221.802856 209.809662,200.536621 219.366135,190.191055 
	C226.365097,182.614166 235.567963,182.835876 242.128174,190.714462 
	C251.356918,201.797852 250.617889,225.420685 237.795441,234.089569 
M223.347305,203.986588 
	C226.470078,203.170868 228.548691,201.208389 227.737991,197.963135 
	C227.352234,196.418961 225.206802,194.157822 223.990143,194.237274 
	C221.947464,194.370712 218.917068,195.665283 218.254684,197.274826 
	C216.855270,200.675171 218.653641,203.309601 223.347305,203.986588 
z"/>
<path fill="#FDFAFA" opacity="1.000000" stroke="none" 
	d="
M361.339111,201.862427 
	C359.257874,198.808945 359.797363,196.257706 362.667908,195.008530 
	C364.065979,194.400101 366.835358,194.774857 367.749237,195.802567 
	C368.758301,196.937317 368.957611,200.714401 368.458160,200.932480 
	C366.397034,201.832397 363.937317,201.819382 361.339111,201.862427 
z"/>
<path fill="#FDFAFA" opacity="1.000000" stroke="none" 
	d="
M222.948410,203.991425 
	C218.653641,203.309601 216.855270,200.675171 218.254684,197.274826 
	C218.917068,195.665283 221.947464,194.370712 223.990143,194.237274 
	C225.206802,194.157822 227.352234,196.418961 227.737991,197.963135 
	C228.548691,201.208389 226.470078,203.170868 222.948410,203.991425 
z"/>
</svg>